G04 #@! TF.GenerationSoftware,KiCad,Pcbnew,(5.1.7)-1*
G04 #@! TF.CreationDate,2022-02-27T16:51:40+00:00*
G04 #@! TF.ProjectId,TOBIN,544f4249-4e2e-46b6-9963-61645f706362,rev?*
G04 #@! TF.SameCoordinates,Original*
G04 #@! TF.FileFunction,Legend,Bot*
G04 #@! TF.FilePolarity,Positive*
%FSLAX46Y46*%
G04 Gerber Fmt 4.6, Leading zero omitted, Abs format (unit mm)*
G04 Created by KiCad (PCBNEW (5.1.7)-1) date 2022-02-27 16:51:40*
%MOMM*%
%LPD*%
G01*
G04 APERTURE LIST*
%ADD10C,0.010000*%
G04 APERTURE END LIST*
D10*
G36*
X102708363Y-26716182D02*
G01*
X94309045Y-26729575D01*
X92944643Y-26732310D01*
X91653686Y-26735989D01*
X90453802Y-26740493D01*
X89362619Y-26745704D01*
X88397763Y-26751504D01*
X87576863Y-26757774D01*
X86917545Y-26764396D01*
X86437437Y-26771253D01*
X86154166Y-26778225D01*
X86082909Y-26784730D01*
X86241662Y-26807456D01*
X86597002Y-26849396D01*
X87115740Y-26906924D01*
X87764684Y-26976418D01*
X88510644Y-27054251D01*
X89142454Y-27118821D01*
X90107195Y-27216565D01*
X91154291Y-27322713D01*
X92211087Y-27429897D01*
X93204928Y-27530746D01*
X94063159Y-27617891D01*
X94280181Y-27639942D01*
X94999627Y-27710205D01*
X95660631Y-27769448D01*
X96221006Y-27814305D01*
X96638564Y-27841415D01*
X96871119Y-27847412D01*
X96877909Y-27847050D01*
X97243710Y-27855464D01*
X97628363Y-27905481D01*
X97861073Y-27943117D01*
X97881996Y-27919002D01*
X97801545Y-27875979D01*
X97701000Y-27809871D01*
X97788232Y-27784210D01*
X98050141Y-27789682D01*
X98333642Y-27819737D01*
X98478720Y-27867693D01*
X98483347Y-27888159D01*
X98558287Y-27929888D01*
X98800827Y-27952562D01*
X98985206Y-27953879D01*
X99415048Y-27961465D01*
X99933291Y-27991056D01*
X100259905Y-28019579D01*
X100676102Y-28051357D01*
X100916263Y-28034824D01*
X101031366Y-27963890D01*
X101051576Y-27924995D01*
X101211585Y-27761582D01*
X101461438Y-27745115D01*
X101738842Y-27848835D01*
X101981509Y-28045978D01*
X102127149Y-28309783D01*
X102142213Y-28393563D01*
X102146131Y-28542433D01*
X102150889Y-28904268D01*
X102156363Y-29461128D01*
X102162430Y-30195072D01*
X102168967Y-31088159D01*
X102175851Y-32122447D01*
X102182958Y-33279996D01*
X102190166Y-34542865D01*
X102197352Y-35893112D01*
X102204392Y-37312797D01*
X102206568Y-37773288D01*
X102249303Y-46925394D01*
X101988151Y-47022391D01*
X101801416Y-47053313D01*
X101419923Y-47087204D01*
X100879764Y-47121910D01*
X100217034Y-47155277D01*
X99467827Y-47185152D01*
X99013818Y-47199855D01*
X98310244Y-47221986D01*
X97416144Y-47252113D01*
X96371706Y-47288776D01*
X95217122Y-47330511D01*
X93992578Y-47375856D01*
X92738265Y-47423349D01*
X91494371Y-47471527D01*
X90859005Y-47496603D01*
X85417374Y-47712884D01*
X83758550Y-47224540D01*
X82099727Y-46736196D01*
X82070135Y-38063639D01*
X82040544Y-29391083D01*
X82326689Y-29051019D01*
X82495801Y-28821099D01*
X82561210Y-28671418D01*
X82555536Y-28653657D01*
X82582960Y-28545549D01*
X82674210Y-28450315D01*
X82822566Y-28251734D01*
X82850181Y-28141603D01*
X82943344Y-27961710D01*
X83023363Y-27912479D01*
X83176717Y-27772055D01*
X83196545Y-27694051D01*
X83266139Y-27512650D01*
X83438187Y-27256932D01*
X83485181Y-27199055D01*
X83670255Y-26962736D01*
X83768839Y-26804950D01*
X83773818Y-26786106D01*
X83667212Y-26754506D01*
X83382734Y-26730339D01*
X82973392Y-26717381D01*
X82792454Y-26716182D01*
X81811091Y-26716182D01*
X81811091Y-47844363D01*
X102708363Y-47844363D01*
X102708363Y-26716182D01*
G37*
X102708363Y-26716182D02*
X94309045Y-26729575D01*
X92944643Y-26732310D01*
X91653686Y-26735989D01*
X90453802Y-26740493D01*
X89362619Y-26745704D01*
X88397763Y-26751504D01*
X87576863Y-26757774D01*
X86917545Y-26764396D01*
X86437437Y-26771253D01*
X86154166Y-26778225D01*
X86082909Y-26784730D01*
X86241662Y-26807456D01*
X86597002Y-26849396D01*
X87115740Y-26906924D01*
X87764684Y-26976418D01*
X88510644Y-27054251D01*
X89142454Y-27118821D01*
X90107195Y-27216565D01*
X91154291Y-27322713D01*
X92211087Y-27429897D01*
X93204928Y-27530746D01*
X94063159Y-27617891D01*
X94280181Y-27639942D01*
X94999627Y-27710205D01*
X95660631Y-27769448D01*
X96221006Y-27814305D01*
X96638564Y-27841415D01*
X96871119Y-27847412D01*
X96877909Y-27847050D01*
X97243710Y-27855464D01*
X97628363Y-27905481D01*
X97861073Y-27943117D01*
X97881996Y-27919002D01*
X97801545Y-27875979D01*
X97701000Y-27809871D01*
X97788232Y-27784210D01*
X98050141Y-27789682D01*
X98333642Y-27819737D01*
X98478720Y-27867693D01*
X98483347Y-27888159D01*
X98558287Y-27929888D01*
X98800827Y-27952562D01*
X98985206Y-27953879D01*
X99415048Y-27961465D01*
X99933291Y-27991056D01*
X100259905Y-28019579D01*
X100676102Y-28051357D01*
X100916263Y-28034824D01*
X101031366Y-27963890D01*
X101051576Y-27924995D01*
X101211585Y-27761582D01*
X101461438Y-27745115D01*
X101738842Y-27848835D01*
X101981509Y-28045978D01*
X102127149Y-28309783D01*
X102142213Y-28393563D01*
X102146131Y-28542433D01*
X102150889Y-28904268D01*
X102156363Y-29461128D01*
X102162430Y-30195072D01*
X102168967Y-31088159D01*
X102175851Y-32122447D01*
X102182958Y-33279996D01*
X102190166Y-34542865D01*
X102197352Y-35893112D01*
X102204392Y-37312797D01*
X102206568Y-37773288D01*
X102249303Y-46925394D01*
X101988151Y-47022391D01*
X101801416Y-47053313D01*
X101419923Y-47087204D01*
X100879764Y-47121910D01*
X100217034Y-47155277D01*
X99467827Y-47185152D01*
X99013818Y-47199855D01*
X98310244Y-47221986D01*
X97416144Y-47252113D01*
X96371706Y-47288776D01*
X95217122Y-47330511D01*
X93992578Y-47375856D01*
X92738265Y-47423349D01*
X91494371Y-47471527D01*
X90859005Y-47496603D01*
X85417374Y-47712884D01*
X83758550Y-47224540D01*
X82099727Y-46736196D01*
X82070135Y-38063639D01*
X82040544Y-29391083D01*
X82326689Y-29051019D01*
X82495801Y-28821099D01*
X82561210Y-28671418D01*
X82555536Y-28653657D01*
X82582960Y-28545549D01*
X82674210Y-28450315D01*
X82822566Y-28251734D01*
X82850181Y-28141603D01*
X82943344Y-27961710D01*
X83023363Y-27912479D01*
X83176717Y-27772055D01*
X83196545Y-27694051D01*
X83266139Y-27512650D01*
X83438187Y-27256932D01*
X83485181Y-27199055D01*
X83670255Y-26962736D01*
X83768839Y-26804950D01*
X83773818Y-26786106D01*
X83667212Y-26754506D01*
X83382734Y-26730339D01*
X82973392Y-26717381D01*
X82792454Y-26716182D01*
X81811091Y-26716182D01*
X81811091Y-47844363D01*
X102708363Y-47844363D01*
X102708363Y-26716182D01*
G36*
X88543013Y-46802073D02*
G01*
X90088613Y-46758271D01*
X91449223Y-46717472D01*
X92647783Y-46678992D01*
X93529727Y-46648548D01*
X94354335Y-46619053D01*
X95263412Y-46586547D01*
X96161841Y-46554431D01*
X96954505Y-46526105D01*
X97166545Y-46518530D01*
X98199541Y-46480286D01*
X99026565Y-46445527D01*
X99672473Y-46411595D01*
X100162122Y-46375834D01*
X100520366Y-46335585D01*
X100772062Y-46288190D01*
X100942065Y-46230992D01*
X101055231Y-46161333D01*
X101120819Y-46095709D01*
X101160429Y-46036816D01*
X101194513Y-45949933D01*
X101223477Y-45818530D01*
X101247730Y-45626073D01*
X101267681Y-45356030D01*
X101283736Y-44991867D01*
X101296305Y-44517052D01*
X101305794Y-43915053D01*
X101312613Y-43169337D01*
X101317168Y-42263371D01*
X101319868Y-41180622D01*
X101321121Y-39904558D01*
X101321335Y-38418645D01*
X101321266Y-37972907D01*
X101319110Y-36213596D01*
X101313412Y-34656433D01*
X101304230Y-33305363D01*
X101291623Y-32164329D01*
X101275648Y-31237274D01*
X101256365Y-30528141D01*
X101233830Y-30040875D01*
X101208102Y-29779417D01*
X101200109Y-29746557D01*
X100970492Y-29396631D01*
X100596733Y-29220354D01*
X100231450Y-29208914D01*
X99944440Y-29202583D01*
X99764311Y-29140759D01*
X99548292Y-29053721D01*
X99412588Y-29040866D01*
X99216608Y-29028768D01*
X98842929Y-28992276D01*
X98342826Y-28936829D01*
X97767575Y-28867866D01*
X97687554Y-28857892D01*
X96999008Y-28779448D01*
X96522379Y-28743927D01*
X96242816Y-28750720D01*
X96146553Y-28794793D01*
X96055782Y-28855950D01*
X95948891Y-28789897D01*
X95779527Y-28731847D01*
X95429105Y-28664705D01*
X94947031Y-28593711D01*
X94382711Y-28524101D01*
X93785552Y-28461115D01*
X93204958Y-28409991D01*
X92690336Y-28375965D01*
X92291093Y-28364277D01*
X92065799Y-28378211D01*
X91827692Y-28392753D01*
X91719436Y-28345475D01*
X91595196Y-28297961D01*
X91286120Y-28241986D01*
X90837938Y-28181650D01*
X90296381Y-28121056D01*
X89707179Y-28064305D01*
X89116064Y-28015497D01*
X88568766Y-27978735D01*
X88111016Y-27958119D01*
X87788543Y-27957751D01*
X87648535Y-27980381D01*
X87460775Y-28000903D01*
X87301651Y-27918908D01*
X86919593Y-27770697D01*
X86479696Y-27844482D01*
X86298644Y-27929591D01*
X86043987Y-28117858D01*
X85899284Y-28300196D01*
X85879587Y-28453590D01*
X85859706Y-28814771D01*
X85840169Y-29360620D01*
X85835309Y-29544818D01*
X85967454Y-29544818D01*
X86025181Y-29487091D01*
X86082909Y-29544818D01*
X86025181Y-29602545D01*
X85967454Y-29544818D01*
X85835309Y-29544818D01*
X85821503Y-30068017D01*
X85804235Y-30913840D01*
X85788892Y-31874970D01*
X85776001Y-32928287D01*
X85767016Y-33945810D01*
X86632012Y-33945810D01*
X86632700Y-33299116D01*
X86638120Y-32796289D01*
X86648709Y-32419922D01*
X86664903Y-32152610D01*
X86687140Y-31976947D01*
X86715858Y-31875528D01*
X86751493Y-31830946D01*
X86794482Y-31825796D01*
X86830637Y-31836887D01*
X87006411Y-31802682D01*
X87308075Y-31644918D01*
X87688134Y-31392538D01*
X88099092Y-31074487D01*
X88145389Y-31035683D01*
X88110754Y-30932093D01*
X87970672Y-30725128D01*
X87944917Y-30691873D01*
X87792465Y-30430897D01*
X87778205Y-30242381D01*
X87886082Y-30179818D01*
X87892667Y-30255211D01*
X87867682Y-30302994D01*
X87882503Y-30397349D01*
X87947459Y-30399682D01*
X88132538Y-30399282D01*
X88476743Y-30422722D01*
X88910087Y-30465071D01*
X88969272Y-30471702D01*
X89109870Y-30487697D01*
X90162303Y-30487697D01*
X90178151Y-30419059D01*
X90239272Y-30410727D01*
X90334304Y-30452970D01*
X90316242Y-30487697D01*
X90179224Y-30501514D01*
X90162303Y-30487697D01*
X89109870Y-30487697D01*
X89835181Y-30570211D01*
X89200181Y-30696400D01*
X88864051Y-30777842D01*
X88735128Y-30849138D01*
X88818278Y-30911926D01*
X89118366Y-30967848D01*
X89640258Y-31018541D01*
X90277946Y-31059636D01*
X90854066Y-31103488D01*
X91393192Y-31165636D01*
X91824214Y-31236776D01*
X92028818Y-31288724D01*
X92432240Y-31384525D01*
X92908839Y-31441465D01*
X93094436Y-31448138D01*
X93546388Y-31482895D01*
X93984534Y-31568666D01*
X94133527Y-31616061D01*
X94475155Y-31735096D01*
X94760514Y-31815871D01*
X94799727Y-31823914D01*
X94918412Y-31866292D01*
X94864883Y-31942590D01*
X94638596Y-32073421D01*
X94396889Y-32226477D01*
X94354810Y-32333449D01*
X94402174Y-32377495D01*
X94590711Y-32432055D01*
X94649896Y-32416750D01*
X94737945Y-32443291D01*
X94742000Y-32474315D01*
X94837620Y-32596197D01*
X94980385Y-32664464D01*
X95216592Y-32831320D01*
X95339498Y-33091193D01*
X95310961Y-33349779D01*
X95278018Y-33400335D01*
X95219424Y-33505806D01*
X95330037Y-33503520D01*
X95435632Y-33473592D01*
X95684416Y-33373444D01*
X96084231Y-33184857D01*
X96594773Y-32929435D01*
X97175733Y-32628781D01*
X97786805Y-32304502D01*
X98387683Y-31978202D01*
X98938060Y-31671485D01*
X99397630Y-31405957D01*
X99726086Y-31203222D01*
X99873954Y-31094605D01*
X100085139Y-30984495D01*
X100232436Y-31079835D01*
X100272309Y-31305500D01*
X100260801Y-31623000D01*
X100168363Y-31334363D01*
X100098601Y-31165766D01*
X100064417Y-31171513D01*
X99961404Y-31305717D01*
X99749353Y-31435609D01*
X99555450Y-31553843D01*
X99515653Y-31643775D01*
X99649811Y-31643028D01*
X99732946Y-31591271D01*
X99933291Y-31510900D01*
X100091000Y-31640809D01*
X100207058Y-31984821D01*
X100282450Y-32546759D01*
X100318160Y-33330446D01*
X100321155Y-33874363D01*
X100314471Y-34758323D01*
X100304444Y-35629372D01*
X100291740Y-36458677D01*
X100277026Y-37217404D01*
X100260971Y-37876721D01*
X100244241Y-38407793D01*
X100227503Y-38781787D01*
X100211424Y-38969870D01*
X100202951Y-38983227D01*
X100074837Y-38849136D01*
X100025393Y-38838909D01*
X99996613Y-38908091D01*
X100092742Y-39050045D01*
X100221668Y-39257784D01*
X100285707Y-39479840D01*
X100265501Y-39628015D01*
X100223783Y-39647091D01*
X100101804Y-39598417D01*
X99820371Y-39467083D01*
X99425841Y-39275117D01*
X99108946Y-39117337D01*
X98520842Y-38828313D01*
X97908129Y-38538050D01*
X97310601Y-38264199D01*
X96768052Y-38024406D01*
X96320276Y-37836321D01*
X96007067Y-37717592D01*
X95877901Y-37684363D01*
X95803338Y-37775801D01*
X95814507Y-37915133D01*
X95765864Y-38141533D01*
X95550550Y-38380915D01*
X95222985Y-38579643D01*
X95088363Y-38630807D01*
X95054175Y-38709239D01*
X95241458Y-38850817D01*
X95371588Y-38921581D01*
X95827995Y-39156624D01*
X95459634Y-39237529D01*
X95086825Y-39288765D01*
X94772318Y-39293285D01*
X94414034Y-39320217D01*
X94164727Y-39391444D01*
X94036582Y-39457746D01*
X94084372Y-39480948D01*
X94330120Y-39465071D01*
X94482227Y-39449386D01*
X94879475Y-39427603D01*
X95068096Y-39472302D01*
X95088363Y-39515554D01*
X94986835Y-39607681D01*
X94723226Y-39645541D01*
X94359004Y-39632719D01*
X93955633Y-39572798D01*
X93574578Y-39469360D01*
X93449889Y-39420042D01*
X92962244Y-39263873D01*
X92508367Y-39264008D01*
X92482713Y-39268075D01*
X92028818Y-39343157D01*
X92606091Y-39491225D01*
X92854999Y-39557412D01*
X92961688Y-39597531D01*
X92905753Y-39614934D01*
X92666789Y-39612974D01*
X92224390Y-39595002D01*
X92028818Y-39586062D01*
X91499109Y-39567342D01*
X90811959Y-39551362D01*
X90040829Y-39539401D01*
X89259183Y-39532738D01*
X88911545Y-39531802D01*
X86948818Y-39530773D01*
X87738434Y-39049397D01*
X87365568Y-38700923D01*
X87116459Y-38479044D01*
X86973760Y-38418630D01*
X86876073Y-38522528D01*
X86788347Y-38727683D01*
X86725956Y-38848816D01*
X86689777Y-38804858D01*
X86672404Y-38570721D01*
X86667833Y-38319363D01*
X86653966Y-36923147D01*
X86643082Y-35740420D01*
X86635619Y-34753776D01*
X86632012Y-33945810D01*
X85767016Y-33945810D01*
X85766089Y-34050670D01*
X85765169Y-34182441D01*
X85761411Y-34759515D01*
X85890484Y-34759515D01*
X85906333Y-34690877D01*
X85967454Y-34682545D01*
X86062486Y-34724788D01*
X86044424Y-34759515D01*
X85907406Y-34773333D01*
X85890484Y-34759515D01*
X85761411Y-34759515D01*
X85756751Y-35474896D01*
X85750957Y-36555565D01*
X85748348Y-37443558D01*
X85749487Y-38157988D01*
X85754935Y-38717968D01*
X85765255Y-39142610D01*
X85781007Y-39451026D01*
X85802755Y-39662329D01*
X85831059Y-39795632D01*
X85866481Y-39870045D01*
X85909584Y-39904683D01*
X85933621Y-39912912D01*
X86049796Y-39959385D01*
X85967454Y-39980353D01*
X85915070Y-40010560D01*
X85874202Y-40108311D01*
X85843484Y-40298191D01*
X85821554Y-40604786D01*
X85807046Y-41052680D01*
X85798597Y-41666458D01*
X85794842Y-42470706D01*
X85794667Y-42665010D01*
X89329755Y-42665010D01*
X89339374Y-42236664D01*
X89359846Y-41940397D01*
X89367818Y-41887409D01*
X89448019Y-41459899D01*
X91937550Y-41537762D01*
X92675509Y-41563581D01*
X93336335Y-41591912D01*
X93884864Y-41620819D01*
X94285932Y-41648371D01*
X94504375Y-41672633D01*
X94531902Y-41680408D01*
X94564998Y-41686788D01*
X96396848Y-41686788D01*
X96412696Y-41618150D01*
X96473818Y-41609818D01*
X96568850Y-41652061D01*
X96550787Y-41686788D01*
X96413770Y-41700605D01*
X96396848Y-41686788D01*
X94564998Y-41686788D01*
X94683660Y-41709662D01*
X95015004Y-41739450D01*
X95474655Y-41765998D01*
X95930498Y-41783275D01*
X96420091Y-41790877D01*
X96783255Y-41783016D01*
X96984787Y-41761473D01*
X96993363Y-41729510D01*
X96869461Y-41661828D01*
X96921566Y-41600802D01*
X97166545Y-41518698D01*
X97469763Y-41429490D01*
X97685921Y-41388382D01*
X97829707Y-41424579D01*
X97915805Y-41567287D01*
X97958904Y-41845711D01*
X97973688Y-42289057D01*
X97974846Y-42926529D01*
X97974727Y-43125833D01*
X97974727Y-44872758D01*
X97570636Y-44799924D01*
X97160324Y-44732261D01*
X96737145Y-44671135D01*
X96733591Y-44670671D01*
X96527094Y-44649620D01*
X96507554Y-44670002D01*
X96687554Y-44741490D01*
X96935636Y-44825991D01*
X97570636Y-45037730D01*
X93529727Y-45090575D01*
X92587105Y-45101824D01*
X91719551Y-45110106D01*
X90953635Y-45115325D01*
X90315925Y-45117389D01*
X89832990Y-45116204D01*
X89531399Y-45111676D01*
X89437271Y-45104996D01*
X89405277Y-44973082D01*
X89377421Y-44662130D01*
X89354822Y-44223995D01*
X89338598Y-43710528D01*
X89329870Y-43173582D01*
X89329755Y-42665010D01*
X85794667Y-42665010D01*
X85794272Y-43101309D01*
X85794998Y-44031207D01*
X85798529Y-44758716D01*
X85804450Y-45150424D01*
X85890484Y-45150424D01*
X85906333Y-45081787D01*
X85967454Y-45073454D01*
X86062486Y-45115697D01*
X86044424Y-45150424D01*
X85907406Y-45164242D01*
X85890484Y-45150424D01*
X85804450Y-45150424D01*
X85806898Y-45312358D01*
X85822139Y-45720651D01*
X85846282Y-46012116D01*
X85881361Y-46215273D01*
X85929409Y-46358640D01*
X85992457Y-46470740D01*
X86039031Y-46535791D01*
X86238205Y-46748632D01*
X86472039Y-46838454D01*
X86789486Y-46849562D01*
X88543013Y-46802073D01*
G37*
X88543013Y-46802073D02*
X90088613Y-46758271D01*
X91449223Y-46717472D01*
X92647783Y-46678992D01*
X93529727Y-46648548D01*
X94354335Y-46619053D01*
X95263412Y-46586547D01*
X96161841Y-46554431D01*
X96954505Y-46526105D01*
X97166545Y-46518530D01*
X98199541Y-46480286D01*
X99026565Y-46445527D01*
X99672473Y-46411595D01*
X100162122Y-46375834D01*
X100520366Y-46335585D01*
X100772062Y-46288190D01*
X100942065Y-46230992D01*
X101055231Y-46161333D01*
X101120819Y-46095709D01*
X101160429Y-46036816D01*
X101194513Y-45949933D01*
X101223477Y-45818530D01*
X101247730Y-45626073D01*
X101267681Y-45356030D01*
X101283736Y-44991867D01*
X101296305Y-44517052D01*
X101305794Y-43915053D01*
X101312613Y-43169337D01*
X101317168Y-42263371D01*
X101319868Y-41180622D01*
X101321121Y-39904558D01*
X101321335Y-38418645D01*
X101321266Y-37972907D01*
X101319110Y-36213596D01*
X101313412Y-34656433D01*
X101304230Y-33305363D01*
X101291623Y-32164329D01*
X101275648Y-31237274D01*
X101256365Y-30528141D01*
X101233830Y-30040875D01*
X101208102Y-29779417D01*
X101200109Y-29746557D01*
X100970492Y-29396631D01*
X100596733Y-29220354D01*
X100231450Y-29208914D01*
X99944440Y-29202583D01*
X99764311Y-29140759D01*
X99548292Y-29053721D01*
X99412588Y-29040866D01*
X99216608Y-29028768D01*
X98842929Y-28992276D01*
X98342826Y-28936829D01*
X97767575Y-28867866D01*
X97687554Y-28857892D01*
X96999008Y-28779448D01*
X96522379Y-28743927D01*
X96242816Y-28750720D01*
X96146553Y-28794793D01*
X96055782Y-28855950D01*
X95948891Y-28789897D01*
X95779527Y-28731847D01*
X95429105Y-28664705D01*
X94947031Y-28593711D01*
X94382711Y-28524101D01*
X93785552Y-28461115D01*
X93204958Y-28409991D01*
X92690336Y-28375965D01*
X92291093Y-28364277D01*
X92065799Y-28378211D01*
X91827692Y-28392753D01*
X91719436Y-28345475D01*
X91595196Y-28297961D01*
X91286120Y-28241986D01*
X90837938Y-28181650D01*
X90296381Y-28121056D01*
X89707179Y-28064305D01*
X89116064Y-28015497D01*
X88568766Y-27978735D01*
X88111016Y-27958119D01*
X87788543Y-27957751D01*
X87648535Y-27980381D01*
X87460775Y-28000903D01*
X87301651Y-27918908D01*
X86919593Y-27770697D01*
X86479696Y-27844482D01*
X86298644Y-27929591D01*
X86043987Y-28117858D01*
X85899284Y-28300196D01*
X85879587Y-28453590D01*
X85859706Y-28814771D01*
X85840169Y-29360620D01*
X85835309Y-29544818D01*
X85967454Y-29544818D01*
X86025181Y-29487091D01*
X86082909Y-29544818D01*
X86025181Y-29602545D01*
X85967454Y-29544818D01*
X85835309Y-29544818D01*
X85821503Y-30068017D01*
X85804235Y-30913840D01*
X85788892Y-31874970D01*
X85776001Y-32928287D01*
X85767016Y-33945810D01*
X86632012Y-33945810D01*
X86632700Y-33299116D01*
X86638120Y-32796289D01*
X86648709Y-32419922D01*
X86664903Y-32152610D01*
X86687140Y-31976947D01*
X86715858Y-31875528D01*
X86751493Y-31830946D01*
X86794482Y-31825796D01*
X86830637Y-31836887D01*
X87006411Y-31802682D01*
X87308075Y-31644918D01*
X87688134Y-31392538D01*
X88099092Y-31074487D01*
X88145389Y-31035683D01*
X88110754Y-30932093D01*
X87970672Y-30725128D01*
X87944917Y-30691873D01*
X87792465Y-30430897D01*
X87778205Y-30242381D01*
X87886082Y-30179818D01*
X87892667Y-30255211D01*
X87867682Y-30302994D01*
X87882503Y-30397349D01*
X87947459Y-30399682D01*
X88132538Y-30399282D01*
X88476743Y-30422722D01*
X88910087Y-30465071D01*
X88969272Y-30471702D01*
X89109870Y-30487697D01*
X90162303Y-30487697D01*
X90178151Y-30419059D01*
X90239272Y-30410727D01*
X90334304Y-30452970D01*
X90316242Y-30487697D01*
X90179224Y-30501514D01*
X90162303Y-30487697D01*
X89109870Y-30487697D01*
X89835181Y-30570211D01*
X89200181Y-30696400D01*
X88864051Y-30777842D01*
X88735128Y-30849138D01*
X88818278Y-30911926D01*
X89118366Y-30967848D01*
X89640258Y-31018541D01*
X90277946Y-31059636D01*
X90854066Y-31103488D01*
X91393192Y-31165636D01*
X91824214Y-31236776D01*
X92028818Y-31288724D01*
X92432240Y-31384525D01*
X92908839Y-31441465D01*
X93094436Y-31448138D01*
X93546388Y-31482895D01*
X93984534Y-31568666D01*
X94133527Y-31616061D01*
X94475155Y-31735096D01*
X94760514Y-31815871D01*
X94799727Y-31823914D01*
X94918412Y-31866292D01*
X94864883Y-31942590D01*
X94638596Y-32073421D01*
X94396889Y-32226477D01*
X94354810Y-32333449D01*
X94402174Y-32377495D01*
X94590711Y-32432055D01*
X94649896Y-32416750D01*
X94737945Y-32443291D01*
X94742000Y-32474315D01*
X94837620Y-32596197D01*
X94980385Y-32664464D01*
X95216592Y-32831320D01*
X95339498Y-33091193D01*
X95310961Y-33349779D01*
X95278018Y-33400335D01*
X95219424Y-33505806D01*
X95330037Y-33503520D01*
X95435632Y-33473592D01*
X95684416Y-33373444D01*
X96084231Y-33184857D01*
X96594773Y-32929435D01*
X97175733Y-32628781D01*
X97786805Y-32304502D01*
X98387683Y-31978202D01*
X98938060Y-31671485D01*
X99397630Y-31405957D01*
X99726086Y-31203222D01*
X99873954Y-31094605D01*
X100085139Y-30984495D01*
X100232436Y-31079835D01*
X100272309Y-31305500D01*
X100260801Y-31623000D01*
X100168363Y-31334363D01*
X100098601Y-31165766D01*
X100064417Y-31171513D01*
X99961404Y-31305717D01*
X99749353Y-31435609D01*
X99555450Y-31553843D01*
X99515653Y-31643775D01*
X99649811Y-31643028D01*
X99732946Y-31591271D01*
X99933291Y-31510900D01*
X100091000Y-31640809D01*
X100207058Y-31984821D01*
X100282450Y-32546759D01*
X100318160Y-33330446D01*
X100321155Y-33874363D01*
X100314471Y-34758323D01*
X100304444Y-35629372D01*
X100291740Y-36458677D01*
X100277026Y-37217404D01*
X100260971Y-37876721D01*
X100244241Y-38407793D01*
X100227503Y-38781787D01*
X100211424Y-38969870D01*
X100202951Y-38983227D01*
X100074837Y-38849136D01*
X100025393Y-38838909D01*
X99996613Y-38908091D01*
X100092742Y-39050045D01*
X100221668Y-39257784D01*
X100285707Y-39479840D01*
X100265501Y-39628015D01*
X100223783Y-39647091D01*
X100101804Y-39598417D01*
X99820371Y-39467083D01*
X99425841Y-39275117D01*
X99108946Y-39117337D01*
X98520842Y-38828313D01*
X97908129Y-38538050D01*
X97310601Y-38264199D01*
X96768052Y-38024406D01*
X96320276Y-37836321D01*
X96007067Y-37717592D01*
X95877901Y-37684363D01*
X95803338Y-37775801D01*
X95814507Y-37915133D01*
X95765864Y-38141533D01*
X95550550Y-38380915D01*
X95222985Y-38579643D01*
X95088363Y-38630807D01*
X95054175Y-38709239D01*
X95241458Y-38850817D01*
X95371588Y-38921581D01*
X95827995Y-39156624D01*
X95459634Y-39237529D01*
X95086825Y-39288765D01*
X94772318Y-39293285D01*
X94414034Y-39320217D01*
X94164727Y-39391444D01*
X94036582Y-39457746D01*
X94084372Y-39480948D01*
X94330120Y-39465071D01*
X94482227Y-39449386D01*
X94879475Y-39427603D01*
X95068096Y-39472302D01*
X95088363Y-39515554D01*
X94986835Y-39607681D01*
X94723226Y-39645541D01*
X94359004Y-39632719D01*
X93955633Y-39572798D01*
X93574578Y-39469360D01*
X93449889Y-39420042D01*
X92962244Y-39263873D01*
X92508367Y-39264008D01*
X92482713Y-39268075D01*
X92028818Y-39343157D01*
X92606091Y-39491225D01*
X92854999Y-39557412D01*
X92961688Y-39597531D01*
X92905753Y-39614934D01*
X92666789Y-39612974D01*
X92224390Y-39595002D01*
X92028818Y-39586062D01*
X91499109Y-39567342D01*
X90811959Y-39551362D01*
X90040829Y-39539401D01*
X89259183Y-39532738D01*
X88911545Y-39531802D01*
X86948818Y-39530773D01*
X87738434Y-39049397D01*
X87365568Y-38700923D01*
X87116459Y-38479044D01*
X86973760Y-38418630D01*
X86876073Y-38522528D01*
X86788347Y-38727683D01*
X86725956Y-38848816D01*
X86689777Y-38804858D01*
X86672404Y-38570721D01*
X86667833Y-38319363D01*
X86653966Y-36923147D01*
X86643082Y-35740420D01*
X86635619Y-34753776D01*
X86632012Y-33945810D01*
X85767016Y-33945810D01*
X85766089Y-34050670D01*
X85765169Y-34182441D01*
X85761411Y-34759515D01*
X85890484Y-34759515D01*
X85906333Y-34690877D01*
X85967454Y-34682545D01*
X86062486Y-34724788D01*
X86044424Y-34759515D01*
X85907406Y-34773333D01*
X85890484Y-34759515D01*
X85761411Y-34759515D01*
X85756751Y-35474896D01*
X85750957Y-36555565D01*
X85748348Y-37443558D01*
X85749487Y-38157988D01*
X85754935Y-38717968D01*
X85765255Y-39142610D01*
X85781007Y-39451026D01*
X85802755Y-39662329D01*
X85831059Y-39795632D01*
X85866481Y-39870045D01*
X85909584Y-39904683D01*
X85933621Y-39912912D01*
X86049796Y-39959385D01*
X85967454Y-39980353D01*
X85915070Y-40010560D01*
X85874202Y-40108311D01*
X85843484Y-40298191D01*
X85821554Y-40604786D01*
X85807046Y-41052680D01*
X85798597Y-41666458D01*
X85794842Y-42470706D01*
X85794667Y-42665010D01*
X89329755Y-42665010D01*
X89339374Y-42236664D01*
X89359846Y-41940397D01*
X89367818Y-41887409D01*
X89448019Y-41459899D01*
X91937550Y-41537762D01*
X92675509Y-41563581D01*
X93336335Y-41591912D01*
X93884864Y-41620819D01*
X94285932Y-41648371D01*
X94504375Y-41672633D01*
X94531902Y-41680408D01*
X94564998Y-41686788D01*
X96396848Y-41686788D01*
X96412696Y-41618150D01*
X96473818Y-41609818D01*
X96568850Y-41652061D01*
X96550787Y-41686788D01*
X96413770Y-41700605D01*
X96396848Y-41686788D01*
X94564998Y-41686788D01*
X94683660Y-41709662D01*
X95015004Y-41739450D01*
X95474655Y-41765998D01*
X95930498Y-41783275D01*
X96420091Y-41790877D01*
X96783255Y-41783016D01*
X96984787Y-41761473D01*
X96993363Y-41729510D01*
X96869461Y-41661828D01*
X96921566Y-41600802D01*
X97166545Y-41518698D01*
X97469763Y-41429490D01*
X97685921Y-41388382D01*
X97829707Y-41424579D01*
X97915805Y-41567287D01*
X97958904Y-41845711D01*
X97973688Y-42289057D01*
X97974846Y-42926529D01*
X97974727Y-43125833D01*
X97974727Y-44872758D01*
X97570636Y-44799924D01*
X97160324Y-44732261D01*
X96737145Y-44671135D01*
X96733591Y-44670671D01*
X96527094Y-44649620D01*
X96507554Y-44670002D01*
X96687554Y-44741490D01*
X96935636Y-44825991D01*
X97570636Y-45037730D01*
X93529727Y-45090575D01*
X92587105Y-45101824D01*
X91719551Y-45110106D01*
X90953635Y-45115325D01*
X90315925Y-45117389D01*
X89832990Y-45116204D01*
X89531399Y-45111676D01*
X89437271Y-45104996D01*
X89405277Y-44973082D01*
X89377421Y-44662130D01*
X89354822Y-44223995D01*
X89338598Y-43710528D01*
X89329870Y-43173582D01*
X89329755Y-42665010D01*
X85794667Y-42665010D01*
X85794272Y-43101309D01*
X85794998Y-44031207D01*
X85798529Y-44758716D01*
X85804450Y-45150424D01*
X85890484Y-45150424D01*
X85906333Y-45081787D01*
X85967454Y-45073454D01*
X86062486Y-45115697D01*
X86044424Y-45150424D01*
X85907406Y-45164242D01*
X85890484Y-45150424D01*
X85804450Y-45150424D01*
X85806898Y-45312358D01*
X85822139Y-45720651D01*
X85846282Y-46012116D01*
X85881361Y-46215273D01*
X85929409Y-46358640D01*
X85992457Y-46470740D01*
X86039031Y-46535791D01*
X86238205Y-46748632D01*
X86472039Y-46838454D01*
X86789486Y-46849562D01*
X88543013Y-46802073D01*
G36*
X99013818Y-31853909D02*
G01*
X98956091Y-31796182D01*
X98898363Y-31853909D01*
X98956091Y-31911636D01*
X99013818Y-31853909D01*
G37*
X99013818Y-31853909D02*
X98956091Y-31796182D01*
X98898363Y-31853909D01*
X98956091Y-31911636D01*
X99013818Y-31853909D01*
G36*
X99591091Y-31853909D02*
G01*
X99533363Y-31796182D01*
X99475636Y-31853909D01*
X99533363Y-31911636D01*
X99591091Y-31853909D01*
G37*
X99591091Y-31853909D02*
X99533363Y-31796182D01*
X99475636Y-31853909D01*
X99533363Y-31911636D01*
X99591091Y-31853909D01*
G36*
X100014424Y-31873151D02*
G01*
X99998575Y-31804514D01*
X99937454Y-31796182D01*
X99842422Y-31838425D01*
X99860484Y-31873151D01*
X99997502Y-31886969D01*
X100014424Y-31873151D01*
G37*
X100014424Y-31873151D02*
X99998575Y-31804514D01*
X99937454Y-31796182D01*
X99842422Y-31838425D01*
X99860484Y-31873151D01*
X99997502Y-31886969D01*
X100014424Y-31873151D01*
G36*
X98782909Y-31969363D02*
G01*
X98725181Y-31911636D01*
X98667454Y-31969363D01*
X98725181Y-32027091D01*
X98782909Y-31969363D01*
G37*
X98782909Y-31969363D02*
X98725181Y-31911636D01*
X98667454Y-31969363D01*
X98725181Y-32027091D01*
X98782909Y-31969363D01*
G36*
X99668060Y-32104060D02*
G01*
X99652212Y-32035423D01*
X99591091Y-32027091D01*
X99496058Y-32069334D01*
X99514121Y-32104060D01*
X99651138Y-32117878D01*
X99668060Y-32104060D01*
G37*
X99668060Y-32104060D02*
X99652212Y-32035423D01*
X99591091Y-32027091D01*
X99496058Y-32069334D01*
X99514121Y-32104060D01*
X99651138Y-32117878D01*
X99668060Y-32104060D01*
G36*
X98436545Y-32315727D02*
G01*
X98378818Y-32258000D01*
X98321091Y-32315727D01*
X98378818Y-32373454D01*
X98436545Y-32315727D01*
G37*
X98436545Y-32315727D02*
X98378818Y-32258000D01*
X98321091Y-32315727D01*
X98378818Y-32373454D01*
X98436545Y-32315727D01*
G36*
X98090181Y-32431182D02*
G01*
X98032454Y-32373454D01*
X97974727Y-32431182D01*
X98032454Y-32488909D01*
X98090181Y-32431182D01*
G37*
X98090181Y-32431182D02*
X98032454Y-32373454D01*
X97974727Y-32431182D01*
X98032454Y-32488909D01*
X98090181Y-32431182D01*
G36*
X98321091Y-32662091D02*
G01*
X98263363Y-32604363D01*
X98205636Y-32662091D01*
X98263363Y-32719818D01*
X98321091Y-32662091D01*
G37*
X98321091Y-32662091D02*
X98263363Y-32604363D01*
X98205636Y-32662091D01*
X98263363Y-32719818D01*
X98321091Y-32662091D01*
G36*
X98354104Y-32982171D02*
G01*
X98378818Y-32950727D01*
X98419455Y-32846886D01*
X98310222Y-32885996D01*
X98205636Y-32950727D01*
X98116877Y-33043411D01*
X98169959Y-33064414D01*
X98354104Y-32982171D01*
G37*
X98354104Y-32982171D02*
X98378818Y-32950727D01*
X98419455Y-32846886D01*
X98310222Y-32885996D01*
X98205636Y-32950727D01*
X98116877Y-33043411D01*
X98169959Y-33064414D01*
X98354104Y-32982171D01*
G36*
X98622744Y-33917431D02*
G01*
X98651357Y-33743520D01*
X98500185Y-33532960D01*
X98494272Y-33528000D01*
X98351797Y-33456238D01*
X98321091Y-33504420D01*
X98282440Y-33712450D01*
X98251011Y-33807193D01*
X98259184Y-33953144D01*
X98424193Y-33989818D01*
X98622744Y-33917431D01*
G37*
X98622744Y-33917431D02*
X98651357Y-33743520D01*
X98500185Y-33532960D01*
X98494272Y-33528000D01*
X98351797Y-33456238D01*
X98321091Y-33504420D01*
X98282440Y-33712450D01*
X98251011Y-33807193D01*
X98259184Y-33953144D01*
X98424193Y-33989818D01*
X98622744Y-33917431D01*
G36*
X94613209Y-36524901D02*
G01*
X95026030Y-36488245D01*
X95290327Y-36428410D01*
X95312097Y-36418204D01*
X95523963Y-36323330D01*
X95893703Y-36175304D01*
X96361389Y-35997661D01*
X96681194Y-35880468D01*
X97287320Y-35653935D01*
X97688902Y-35483727D01*
X97902727Y-35360360D01*
X97945584Y-35274353D01*
X97849715Y-35220433D01*
X97360279Y-35070691D01*
X96800938Y-34885300D01*
X96237957Y-34687758D01*
X95737605Y-34501566D01*
X95366146Y-34350224D01*
X95271039Y-34305977D01*
X94949784Y-34183337D01*
X94543688Y-34106591D01*
X93992675Y-34066198D01*
X93709037Y-34057889D01*
X93218721Y-34041401D01*
X92813830Y-34015959D01*
X92551157Y-33985731D01*
X92487270Y-33968219D01*
X92299814Y-33951808D01*
X92132070Y-33993490D01*
X91907043Y-34040105D01*
X91528965Y-34079025D01*
X91045764Y-34109345D01*
X90505366Y-34130158D01*
X89955701Y-34140557D01*
X89444695Y-34139638D01*
X89020276Y-34126493D01*
X88730371Y-34100216D01*
X88622909Y-34059901D01*
X88622909Y-34059846D01*
X88552342Y-34058135D01*
X88373046Y-34193055D01*
X88253565Y-34305875D01*
X87884222Y-34675218D01*
X88217067Y-35371609D01*
X88403000Y-35726637D01*
X88567601Y-35982025D01*
X88673001Y-36081164D01*
X88869973Y-36102737D01*
X89142454Y-36133000D01*
X90116554Y-36241090D01*
X90901731Y-36325892D01*
X91538444Y-36390643D01*
X92067151Y-36438582D01*
X92528309Y-36472945D01*
X92962378Y-36496970D01*
X93409814Y-36513893D01*
X93911076Y-36526954D01*
X94123357Y-36531562D01*
X94613209Y-36524901D01*
G37*
X94613209Y-36524901D02*
X95026030Y-36488245D01*
X95290327Y-36428410D01*
X95312097Y-36418204D01*
X95523963Y-36323330D01*
X95893703Y-36175304D01*
X96361389Y-35997661D01*
X96681194Y-35880468D01*
X97287320Y-35653935D01*
X97688902Y-35483727D01*
X97902727Y-35360360D01*
X97945584Y-35274353D01*
X97849715Y-35220433D01*
X97360279Y-35070691D01*
X96800938Y-34885300D01*
X96237957Y-34687758D01*
X95737605Y-34501566D01*
X95366146Y-34350224D01*
X95271039Y-34305977D01*
X94949784Y-34183337D01*
X94543688Y-34106591D01*
X93992675Y-34066198D01*
X93709037Y-34057889D01*
X93218721Y-34041401D01*
X92813830Y-34015959D01*
X92551157Y-33985731D01*
X92487270Y-33968219D01*
X92299814Y-33951808D01*
X92132070Y-33993490D01*
X91907043Y-34040105D01*
X91528965Y-34079025D01*
X91045764Y-34109345D01*
X90505366Y-34130158D01*
X89955701Y-34140557D01*
X89444695Y-34139638D01*
X89020276Y-34126493D01*
X88730371Y-34100216D01*
X88622909Y-34059901D01*
X88622909Y-34059846D01*
X88552342Y-34058135D01*
X88373046Y-34193055D01*
X88253565Y-34305875D01*
X87884222Y-34675218D01*
X88217067Y-35371609D01*
X88403000Y-35726637D01*
X88567601Y-35982025D01*
X88673001Y-36081164D01*
X88869973Y-36102737D01*
X89142454Y-36133000D01*
X90116554Y-36241090D01*
X90901731Y-36325892D01*
X91538444Y-36390643D01*
X92067151Y-36438582D01*
X92528309Y-36472945D01*
X92962378Y-36496970D01*
X93409814Y-36513893D01*
X93911076Y-36526954D01*
X94123357Y-36531562D01*
X94613209Y-36524901D01*
G36*
X86968060Y-35221333D02*
G01*
X86981878Y-35084316D01*
X86968060Y-35067394D01*
X86899423Y-35083242D01*
X86891091Y-35144363D01*
X86933334Y-35239396D01*
X86968060Y-35221333D01*
G37*
X86968060Y-35221333D02*
X86981878Y-35084316D01*
X86968060Y-35067394D01*
X86899423Y-35083242D01*
X86891091Y-35144363D01*
X86933334Y-35239396D01*
X86968060Y-35221333D01*
G36*
X98205636Y-35086636D02*
G01*
X98147909Y-35028909D01*
X98090181Y-35086636D01*
X98147909Y-35144363D01*
X98205636Y-35086636D01*
G37*
X98205636Y-35086636D02*
X98147909Y-35028909D01*
X98090181Y-35086636D01*
X98147909Y-35144363D01*
X98205636Y-35086636D01*
G36*
X99351945Y-37125387D02*
G01*
X99360181Y-36991636D01*
X99316315Y-36803958D01*
X99255536Y-36760727D01*
X99196147Y-36852672D01*
X99211274Y-36991636D01*
X99278298Y-37178157D01*
X99315920Y-37222545D01*
X99351945Y-37125387D01*
G37*
X99351945Y-37125387D02*
X99360181Y-36991636D01*
X99316315Y-36803958D01*
X99255536Y-36760727D01*
X99196147Y-36852672D01*
X99211274Y-36991636D01*
X99278298Y-37178157D01*
X99315920Y-37222545D01*
X99351945Y-37125387D01*
G36*
X95665636Y-37626636D02*
G01*
X95607909Y-37568909D01*
X95550181Y-37626636D01*
X95607909Y-37684363D01*
X95665636Y-37626636D01*
G37*
X95665636Y-37626636D02*
X95607909Y-37568909D01*
X95550181Y-37626636D01*
X95607909Y-37684363D01*
X95665636Y-37626636D01*
G36*
X100012574Y-38624760D02*
G01*
X100049817Y-38352537D01*
X99980139Y-37944136D01*
X99858174Y-37745659D01*
X99597531Y-37684615D01*
X99570811Y-37684363D01*
X99347780Y-37716729D01*
X99301965Y-37799015D01*
X99302454Y-37799818D01*
X99469660Y-37906427D01*
X99537977Y-37915273D01*
X99680845Y-38013362D01*
X99781358Y-38238412D01*
X99804662Y-38486598D01*
X99768328Y-38601438D01*
X99790710Y-38705720D01*
X99872913Y-38723454D01*
X100012574Y-38624760D01*
G37*
X100012574Y-38624760D02*
X100049817Y-38352537D01*
X99980139Y-37944136D01*
X99858174Y-37745659D01*
X99597531Y-37684615D01*
X99570811Y-37684363D01*
X99347780Y-37716729D01*
X99301965Y-37799015D01*
X99302454Y-37799818D01*
X99469660Y-37906427D01*
X99537977Y-37915273D01*
X99680845Y-38013362D01*
X99781358Y-38238412D01*
X99804662Y-38486598D01*
X99768328Y-38601438D01*
X99790710Y-38705720D01*
X99872913Y-38723454D01*
X100012574Y-38624760D01*
M02*
