M48
; DRILL file {KiCad (5.1.7)-1} date 02/27/22 16:51:42
; FORMAT={-:-/ absolute / inch / decimal}
; #@! TF.CreationDate,2022-02-27T16:51:42+00:00
; #@! TF.GenerationSoftware,Kicad,Pcbnew,(5.1.7)-1
; #@! TF.FileFunction,Plated,1,2,PTH
FMAT,2
INCH
T1C0.0157
T2C0.1260
%
G90
G05
T1
X3.19Y-0.92
X3.19Y-1.41
X3.19Y-1.84
X3.23Y-1.31
X3.25Y-1.09
X3.27Y-2.04
X3.29Y-1.25
X3.29Y-1.25
X3.37Y-2.12
X3.53Y-2.08
X3.54Y-0.98
X3.54Y-1.95
X3.66Y-1.44
X3.66Y-1.44
X3.66Y-1.44
X3.67Y-1.95
X3.74Y-1.24
X3.77Y-1.46
X3.77Y-1.73
X3.77Y-1.95
X3.78Y-1.13
X3.79Y-1.56
X3.81Y-1.84
X4.0Y-1.09
X4.0Y-1.62
X4.0Y-1.88
X4.01Y-1.16
X4.03Y-1.46
T2
G00X3.7484Y-0.9004
M15
G01X3.9453Y-0.9004
M16
G05
G00X3.7484Y-2.1209
M15
G01X3.9453Y-2.1209
M16
G05
T0
M30
